<svg id="visual" viewBox="0 0 900 600" width="900" height="600" xmlns="http://www.w3.org/2000/svg" xmlns:xlink="http://www.w3.org/1999/xlink" version="1.1"><path d="M0 374L10 358C20 342 40 310 60 311.7C80 313.3 100 348.7 120 366.2C140 383.7 160 383.3 180 383.5C200 383.7 220 384.3 240 375.5C260 366.7 280 348.3 300 330.5C320 312.7 340 295.3 360 299C380 302.7 400 327.3 420 332.8C440 338.3 460 324.7 480 320.8C500 317 520 323 540 331.8C560 340.7 580 352.3 600 350.3C620 348.3 640 332.7 660 331.3C680 330 700 343 720 345.7C740 348.3 760 340.7 780 345.7C800 350.7 820 368.3 840 375.8C860 383.3 880 380.7 890 379.3L900 378L900 601L890 601C880 601 860 601 840 601C820 601 800 601 780 601C760 601 740 601 720 601C700 601 680 601 660 601C640 601 620 601 600 601C580 601 560 601 540 601C520 601 500 601 480 601C460 601 440 601 420 601C400 601 380 601 360 601C340 601 320 601 300 601C280 601 260 601 240 601C220 601 200 601 180 601C160 601 140 601 120 601C100 601 80 601 60 601C40 601 20 601 10 601L0 601Z" fill="#fa7268"></path><path d="M0 371L10 365.3C20 359.7 40 348.3 60 342.8C80 337.3 100 337.7 120 350.2C140 362.7 160 387.3 180 391.8C200 396.3 220 380.7 240 366.7C260 352.7 280 340.3 300 349C320 357.7 340 387.3 360 401C380 414.7 400 412.3 420 406.7C440 401 460 392 480 385.2C500 378.3 520 373.7 540 373C560 372.3 580 375.7 600 372C620 368.3 640 357.7 660 360.2C680 362.7 700 378.3 720 388.2C740 398 760 402 780 399.8C800 397.7 820 389.3 840 388.5C860 387.7 880 394.3 890 397.7L900 401L900 601L890 601C880 601 860 601 840 601C820 601 800 601 780 601C760 601 740 601 720 601C700 601 680 601 660 601C640 601 620 601 600 601C580 601 560 601 540 601C520 601 500 601 480 601C460 601 440 601 420 601C400 601 380 601 360 601C340 601 320 601 300 601C280 601 260 601 240 601C220 601 200 601 180 601C160 601 140 601 120 601C100 601 80 601 60 601C40 601 20 601 10 601L0 601Z" fill="#f46767"></path><path d="M0 363L10 368.5C20 374 40 385 60 386.5C80 388 100 380 120 373.2C140 366.3 160 360.7 180 372.3C200 384 220 413 240 426.5C260 440 280 438 300 426.5C320 415 340 394 360 390.2C380 386.3 400 399.7 420 410.8C440 422 460 431 480 434.8C500 438.7 520 437.3 540 436.8C560 436.3 580 436.7 600 433.2C620 429.7 640 422.3 660 421C680 419.7 700 424.3 720 415C740 405.7 760 382.3 780 380.7C800 379 820 399 840 411.7C860 424.3 880 429.7 890 432.3L900 435L900 601L890 601C880 601 860 601 840 601C820 601 800 601 780 601C760 601 740 601 720 601C700 601 680 601 660 601C640 601 620 601 600 601C580 601 560 601 540 601C520 601 500 601 480 601C460 601 440 601 420 601C400 601 380 601 360 601C340 601 320 601 300 601C280 601 260 601 240 601C220 601 200 601 180 601C160 601 140 601 120 601C100 601 80 601 60 601C40 601 20 601 10 601L0 601Z" fill="#ee5c67"></path><path d="M0 445L10 448.5C20 452 40 459 60 459.5C80 460 100 454 120 446.2C140 438.3 160 428.7 180 432.8C200 437 220 455 240 453C260 451 280 429 300 427.3C320 425.7 340 444.3 360 442.7C380 441 400 419 420 420.2C440 421.3 460 445.7 480 446.2C500 446.7 520 423.3 540 412.7C560 402 580 404 600 403.7C620 403.3 640 400.7 660 405.3C680 410 700 422 720 434.7C740 447.3 760 460.7 780 464.7C800 468.7 820 463.3 840 460.8C860 458.3 880 458.7 890 458.8L900 459L900 601L890 601C880 601 860 601 840 601C820 601 800 601 780 601C760 601 740 601 720 601C700 601 680 601 660 601C640 601 620 601 600 601C580 601 560 601 540 601C520 601 500 601 480 601C460 601 440 601 420 601C400 601 380 601 360 601C340 601 320 601 300 601C280 601 260 601 240 601C220 601 200 601 180 601C160 601 140 601 120 601C100 601 80 601 60 601C40 601 20 601 10 601L0 601Z" fill="#e75167"></path><path d="M0 457L10 452.3C20 447.7 40 438.3 60 437.3C80 436.3 100 443.7 120 451.7C140 459.7 160 468.3 180 467C200 465.7 220 454.3 240 456.7C260 459 280 475 300 479.3C320 483.7 340 476.3 360 475.7C380 475 400 481 420 480.7C440 480.3 460 473.7 480 475.3C500 477 520 487 540 481.7C560 476.3 580 455.7 600 450.8C620 446 640 457 660 463C680 469 700 470 720 469C740 468 760 465 780 465.2C800 465.3 820 468.7 840 464C860 459.3 880 446.7 890 440.3L900 434L900 601L890 601C880 601 860 601 840 601C820 601 800 601 780 601C760 601 740 601 720 601C700 601 680 601 660 601C640 601 620 601 600 601C580 601 560 601 540 601C520 601 500 601 480 601C460 601 440 601 420 601C400 601 380 601 360 601C340 601 320 601 300 601C280 601 260 601 240 601C220 601 200 601 180 601C160 601 140 601 120 601C100 601 80 601 60 601C40 601 20 601 10 601L0 601Z" fill="#df4667"></path><path d="M0 500L10 495.2C20 490.3 40 480.7 60 477.2C80 473.7 100 476.3 120 482.8C140 489.3 160 499.7 180 497C200 494.3 220 478.7 240 472.7C260 466.7 280 470.3 300 471.7C320 473 340 472 360 472.5C380 473 400 475 420 473.7C440 472.3 460 467.7 480 466.8C500 466 520 469 540 472.8C560 476.7 580 481.3 600 485.3C620 489.3 640 492.7 660 498C680 503.3 700 510.7 720 509.8C740 509 760 500 780 495.2C800 490.3 820 489.7 840 493.3C860 497 880 505 890 509L900 513L900 601L890 601C880 601 860 601 840 601C820 601 800 601 780 601C760 601 740 601 720 601C700 601 680 601 660 601C640 601 620 601 600 601C580 601 560 601 540 601C520 601 500 601 480 601C460 601 440 601 420 601C400 601 380 601 360 601C340 601 320 601 300 601C280 601 260 601 240 601C220 601 200 601 180 601C160 601 140 601 120 601C100 601 80 601 60 601C40 601 20 601 10 601L0 601Z" fill="#d73b67"></path><path d="M0 520L10 525.3C20 530.7 40 541.3 60 546.3C80 551.3 100 550.7 120 547.3C140 544 160 538 180 537.3C200 536.7 220 541.3 240 542.5C260 543.7 280 541.3 300 540.7C320 540 340 541 360 542.3C380 543.7 400 545.3 420 545.8C440 546.3 460 545.7 480 543.7C500 541.7 520 538.3 540 532C560 525.7 580 516.3 600 510.3C620 504.3 640 501.7 660 503.7C680 505.7 700 512.3 720 514.2C740 516 760 513 780 510.7C800 508.3 820 506.7 840 507C860 507.3 880 509.7 890 510.8L900 512L900 601L890 601C880 601 860 601 840 601C820 601 800 601 780 601C760 601 740 601 720 601C700 601 680 601 660 601C640 601 620 601 600 601C580 601 560 601 540 601C520 601 500 601 480 601C460 601 440 601 420 601C400 601 380 601 360 601C340 601 320 601 300 601C280 601 260 601 240 601C220 601 200 601 180 601C160 601 140 601 120 601C100 601 80 601 60 601C40 601 20 601 10 601L0 601Z" fill="#cf3068"></path><path d="M0 553L10 556.3C20 559.7 40 566.3 60 567.8C80 569.3 100 565.7 120 563.5C140 561.3 160 560.7 180 559.5C200 558.3 220 556.7 240 555.5C260 554.3 280 553.7 300 555.2C320 556.7 340 560.3 360 561.8C380 563.3 400 562.7 420 565.3C440 568 460 574 480 576.2C500 578.3 520 576.7 540 572.2C560 567.7 580 560.3 600 559C620 557.7 640 562.3 660 566C680 569.7 700 572.3 720 573.5C740 574.7 760 574.3 780 575.5C800 576.7 820 579.3 840 574.7C860 570 880 558 890 552L900 546L900 601L890 601C880 601 860 601 840 601C820 601 800 601 780 601C760 601 740 601 720 601C700 601 680 601 660 601C640 601 620 601 600 601C580 601 560 601 540 601C520 601 500 601 480 601C460 601 440 601 420 601C400 601 380 601 360 601C340 601 320 601 300 601C280 601 260 601 240 601C220 601 200 601 180 601C160 601 140 601 120 601C100 601 80 601 60 601C40 601 20 601 10 601L0 601Z" fill="#c62368"></path></svg>