<svg id="visual" viewBox="0 0 900 600" width="900" height="600" xmlns="http://www.w3.org/2000/svg" xmlns:xlink="http://www.w3.org/1999/xlink" version="1.1"><rect x="0" y="0" width="900" height="600" fill="#001220"></rect><path d="M0 272L11.5 282.7C23 293.3 46 314.7 69 326.7C92 338.7 115 341.3 138.2 333.8C161.3 326.3 184.7 308.7 207.8 308.7C231 308.7 254 326.3 277 334.3C300 342.3 323 340.7 346 334.5C369 328.3 392 317.7 415.2 311.3C438.3 305 461.7 303 484.8 301.8C508 300.7 531 300.3 554 296.5C577 292.7 600 285.3 623 292.5C646 299.7 669 321.3 692.2 324.5C715.3 327.7 738.7 312.3 761.8 297.2C785 282 808 267 831 261.5C854 256 877 260 888.5 262L900 264L900 601L888.5 601C877 601 854 601 831 601C808 601 785 601 761.8 601C738.7 601 715.3 601 692.2 601C669 601 646 601 623 601C600 601 577 601 554 601C531 601 508 601 484.8 601C461.7 601 438.3 601 415.2 601C392 601 369 601 346 601C323 601 300 601 277 601C254 601 231 601 207.8 601C184.7 601 161.3 601 138.2 601C115 601 92 601 69 601C46 601 23 601 11.5 601L0 601Z" fill="#fa7268"></path><path d="M0 382L11.5 383.7C23 385.3 46 388.7 69 382.8C92 377 115 362 138.2 351.8C161.3 341.7 184.7 336.3 207.8 344.5C231 352.7 254 374.3 277 387.7C300 401 323 406 346 399.3C369 392.7 392 374.3 415.2 368.5C438.3 362.7 461.7 369.3 484.8 368.3C508 367.3 531 358.7 554 354.2C577 349.7 600 349.3 623 353.5C646 357.7 669 366.3 692.2 375.7C715.3 385 738.7 395 761.8 400.3C785 405.7 808 406.3 831 395.3C854 384.3 877 361.7 888.5 350.3L900 339L900 601L888.5 601C877 601 854 601 831 601C808 601 785 601 761.8 601C738.7 601 715.3 601 692.2 601C669 601 646 601 623 601C600 601 577 601 554 601C531 601 508 601 484.8 601C461.7 601 438.3 601 415.2 601C392 601 369 601 346 601C323 601 300 601 277 601C254 601 231 601 207.8 601C184.7 601 161.3 601 138.2 601C115 601 92 601 69 601C46 601 23 601 11.5 601L0 601Z" fill="#eb5967"></path><path d="M0 418L11.5 426.8C23 435.7 46 453.3 69 458.5C92 463.7 115 456.3 138.2 449.2C161.3 442 184.7 435 207.8 440.5C231 446 254 464 277 469.7C300 475.3 323 468.7 346 460.3C369 452 392 442 415.2 432.7C438.3 423.3 461.7 414.7 484.8 422.2C508 429.7 531 453.3 554 455.3C577 457.3 600 437.7 623 437.8C646 438 669 458 692.2 465.7C715.3 473.3 738.7 468.7 761.8 468.2C785 467.7 808 471.3 831 473.3C854 475.3 877 475.7 888.5 475.8L900 476L900 601L888.5 601C877 601 854 601 831 601C808 601 785 601 761.8 601C738.7 601 715.3 601 692.2 601C669 601 646 601 623 601C600 601 577 601 554 601C531 601 508 601 484.8 601C461.7 601 438.3 601 415.2 601C392 601 369 601 346 601C323 601 300 601 277 601C254 601 231 601 207.8 601C184.7 601 161.3 601 138.2 601C115 601 92 601 69 601C46 601 23 601 11.5 601L0 601Z" fill="#da3f67"></path><path d="M0 529L11.5 524.2C23 519.3 46 509.7 69 509.5C92 509.3 115 518.7 138.2 523C161.3 527.3 184.7 526.7 207.8 524.7C231 522.7 254 519.3 277 517.5C300 515.7 323 515.3 346 514.3C369 513.3 392 511.7 415.2 512C438.3 512.3 461.7 514.7 484.8 516.3C508 518 531 519 554 514.3C577 509.7 600 499.3 623 494C646 488.7 669 488.3 692.2 494.5C715.3 500.7 738.7 513.3 761.8 522.3C785 531.3 808 536.7 831 537.5C854 538.3 877 534.7 888.5 532.8L900 531L900 601L888.5 601C877 601 854 601 831 601C808 601 785 601 761.8 601C738.7 601 715.3 601 692.2 601C669 601 646 601 623 601C600 601 577 601 554 601C531 601 508 601 484.8 601C461.7 601 438.3 601 415.2 601C392 601 369 601 346 601C323 601 300 601 277 601C254 601 231 601 207.8 601C184.7 601 161.3 601 138.2 601C115 601 92 601 69 601C46 601 23 601 11.5 601L0 601Z" fill="#c62368"></path></svg>